<mxfile host="65bd71144e">
    <diagram name="Страница 1" id="Lt-aIZR55gMsXq8YMrB5">
        <mxGraphModel dx="614" dy="771" grid="1" gridSize="10" guides="1" tooltips="1" connect="1" arrows="1" fold="1" page="1" pageScale="1" pageWidth="827" pageHeight="1169" background="#FAFAFA" math="0" shadow="0">
            <root>
                <mxCell id="0"/>
                <mxCell id="1" parent="0"/>
                <mxCell id="R6QYUXMwGx2FRjJkUdAH-8" style="edgeStyle=orthogonalEdgeStyle;rounded=0;orthogonalLoop=1;jettySize=auto;html=1;entryX=0.5;entryY=0;entryDx=0;entryDy=0;strokeColor=#000000;" parent="1" source="R6QYUXMwGx2FRjJkUdAH-1" target="R6QYUXMwGx2FRjJkUdAH-2" edge="1">
                    <mxGeometry relative="1" as="geometry"/>
                </mxCell>
                <mxCell id="R6QYUXMwGx2FRjJkUdAH-1" value="&lt;font color=&quot;#000000&quot;&gt;Старт&lt;/font&gt;" style="rounded=1;whiteSpace=wrap;html=1;fillColor=#ffe6cc;strokeColor=#d79b00;" parent="1" vertex="1">
                    <mxGeometry x="350" y="20" width="120" height="60" as="geometry"/>
                </mxCell>
                <mxCell id="R6QYUXMwGx2FRjJkUdAH-11" style="edgeStyle=orthogonalEdgeStyle;rounded=0;orthogonalLoop=1;jettySize=auto;html=1;entryX=0.5;entryY=0;entryDx=0;entryDy=0;strokeColor=#000000;" parent="1" source="R6QYUXMwGx2FRjJkUdAH-2" target="R6QYUXMwGx2FRjJkUdAH-3" edge="1">
                    <mxGeometry relative="1" as="geometry"/>
                </mxCell>
                <mxCell id="R6QYUXMwGx2FRjJkUdAH-2" value="&lt;font color=&quot;#000000&quot;&gt;string[] input,&lt;br&gt;string[] output,&lt;br&gt;int i = 0,&lt;br&gt;int j = 0,&lt;br&gt;int x = 3,&lt;/font&gt;" style="shape=parallelogram;perimeter=parallelogramPerimeter;whiteSpace=wrap;html=1;fixedSize=1;fillColor=#dae8fc;strokeColor=#6c8ebf;" parent="1" vertex="1">
                    <mxGeometry x="329" y="140" width="162" height="90" as="geometry"/>
                </mxCell>
                <mxCell id="R6QYUXMwGx2FRjJkUdAH-12" style="edgeStyle=orthogonalEdgeStyle;rounded=0;orthogonalLoop=1;jettySize=auto;html=1;entryX=1;entryY=0.5;entryDx=0;entryDy=0;strokeColor=#000000;" parent="1" source="R6QYUXMwGx2FRjJkUdAH-3" target="R6QYUXMwGx2FRjJkUdAH-4" edge="1">
                    <mxGeometry relative="1" as="geometry"/>
                </mxCell>
                <mxCell id="R6QYUXMwGx2FRjJkUdAH-17" style="edgeStyle=orthogonalEdgeStyle;rounded=0;orthogonalLoop=1;jettySize=auto;html=1;strokeColor=#000000;" parent="1" source="R6QYUXMwGx2FRjJkUdAH-3" target="R6QYUXMwGx2FRjJkUdAH-16" edge="1">
                    <mxGeometry relative="1" as="geometry"/>
                </mxCell>
                <mxCell id="R6QYUXMwGx2FRjJkUdAH-3" value="&lt;font color=&quot;#000000&quot;&gt;i &amp;lt; input.Length&lt;/font&gt;" style="rhombus;whiteSpace=wrap;html=1;fillColor=#fff2cc;strokeColor=#d6b656;" parent="1" vertex="1">
                    <mxGeometry x="328" y="280" width="164" height="110" as="geometry"/>
                </mxCell>
                <mxCell id="R6QYUXMwGx2FRjJkUdAH-13" style="edgeStyle=orthogonalEdgeStyle;rounded=0;orthogonalLoop=1;jettySize=auto;html=1;entryX=0.5;entryY=0;entryDx=0;entryDy=0;" parent="1" source="R6QYUXMwGx2FRjJkUdAH-4" edge="1">
                    <mxGeometry relative="1" as="geometry">
                        <mxPoint x="190" y="420" as="targetPoint"/>
                    </mxGeometry>
                </mxCell>
                <mxCell id="2" style="edgeStyle=none;html=1;fontColor=#000000;labelBorderColor=#000000;" edge="1" parent="1" source="R6QYUXMwGx2FRjJkUdAH-4">
                    <mxGeometry relative="1" as="geometry">
                        <mxPoint x="190" y="420" as="targetPoint"/>
                    </mxGeometry>
                </mxCell>
                <mxCell id="3" style="edgeStyle=none;html=1;labelBorderColor=#000000;fontColor=#000000;" edge="1" parent="1" source="R6QYUXMwGx2FRjJkUdAH-4">
                    <mxGeometry relative="1" as="geometry">
                        <mxPoint x="200" y="410" as="targetPoint"/>
                    </mxGeometry>
                </mxCell>
                <mxCell id="4" style="edgeStyle=none;html=1;entryX=0.5;entryY=0;entryDx=0;entryDy=0;labelBorderColor=#000000;fontColor=#000000;strokeColor=#000000;" edge="1" parent="1" source="R6QYUXMwGx2FRjJkUdAH-4" target="R6QYUXMwGx2FRjJkUdAH-29">
                    <mxGeometry relative="1" as="geometry"/>
                </mxCell>
                <mxCell id="R6QYUXMwGx2FRjJkUdAH-4" value="&lt;font color=&quot;#000000&quot;&gt;output&lt;/font&gt;" style="shape=parallelogram;perimeter=parallelogramPerimeter;whiteSpace=wrap;html=1;fixedSize=1;fillColor=#f5f5f5;fontColor=#333333;strokeColor=#666666;" parent="1" vertex="1">
                    <mxGeometry x="130" y="305" width="120" height="60" as="geometry"/>
                </mxCell>
                <mxCell id="R6QYUXMwGx2FRjJkUdAH-15" value="Нет" style="text;html=1;align=center;verticalAlign=middle;resizable=0;points=[];autosize=1;fontColor=#000000;" parent="1" vertex="1">
                    <mxGeometry x="270" y="305" width="40" height="30" as="geometry"/>
                </mxCell>
                <mxCell id="R6QYUXMwGx2FRjJkUdAH-21" style="edgeStyle=orthogonalEdgeStyle;rounded=0;orthogonalLoop=1;jettySize=auto;html=1;entryX=0.5;entryY=0;entryDx=0;entryDy=0;strokeColor=#000000;" parent="1" source="R6QYUXMwGx2FRjJkUdAH-16" target="R6QYUXMwGx2FRjJkUdAH-18" edge="1">
                    <mxGeometry relative="1" as="geometry"/>
                </mxCell>
                <mxCell id="R6QYUXMwGx2FRjJkUdAH-25" style="edgeStyle=orthogonalEdgeStyle;rounded=0;orthogonalLoop=1;jettySize=auto;html=1;entryX=0;entryY=0.5;entryDx=0;entryDy=0;strokeColor=#000000;" parent="1" source="R6QYUXMwGx2FRjJkUdAH-16" target="R6QYUXMwGx2FRjJkUdAH-20" edge="1">
                    <mxGeometry relative="1" as="geometry"/>
                </mxCell>
                <mxCell id="R6QYUXMwGx2FRjJkUdAH-16" value="&lt;font color=&quot;#000000&quot;&gt;input[i].Length &amp;lt;= x&lt;/font&gt;" style="rhombus;whiteSpace=wrap;html=1;fillColor=#fff2cc;strokeColor=#d6b656;" parent="1" vertex="1">
                    <mxGeometry x="328" y="475" width="164" height="110" as="geometry"/>
                </mxCell>
                <mxCell id="R6QYUXMwGx2FRjJkUdAH-22" style="edgeStyle=orthogonalEdgeStyle;rounded=0;orthogonalLoop=1;jettySize=auto;html=1;entryX=0;entryY=0.5;entryDx=0;entryDy=0;strokeColor=#000000;" parent="1" source="R6QYUXMwGx2FRjJkUdAH-18" target="R6QYUXMwGx2FRjJkUdAH-19" edge="1">
                    <mxGeometry relative="1" as="geometry"/>
                </mxCell>
                <mxCell id="R6QYUXMwGx2FRjJkUdAH-18" value="&lt;font color=&quot;#000000&quot;&gt;output[j] = input[i]&lt;/font&gt;" style="rounded=0;whiteSpace=wrap;html=1;fillColor=#d5e8d4;strokeColor=#82b366;" parent="1" vertex="1">
                    <mxGeometry x="350" y="650" width="120" height="60" as="geometry"/>
                </mxCell>
                <mxCell id="R6QYUXMwGx2FRjJkUdAH-23" style="edgeStyle=orthogonalEdgeStyle;rounded=0;orthogonalLoop=1;jettySize=auto;html=1;entryX=0.5;entryY=1;entryDx=0;entryDy=0;strokeColor=#000000;" parent="1" source="R6QYUXMwGx2FRjJkUdAH-19" target="R6QYUXMwGx2FRjJkUdAH-20" edge="1">
                    <mxGeometry relative="1" as="geometry"/>
                </mxCell>
                <mxCell id="R6QYUXMwGx2FRjJkUdAH-19" value="&lt;font color=&quot;#000000&quot;&gt;j++&lt;/font&gt;" style="rounded=0;whiteSpace=wrap;html=1;fillColor=#d5e8d4;strokeColor=#82b366;" parent="1" vertex="1">
                    <mxGeometry x="590" y="650" width="120" height="60" as="geometry"/>
                </mxCell>
                <mxCell id="R6QYUXMwGx2FRjJkUdAH-24" style="edgeStyle=orthogonalEdgeStyle;rounded=0;orthogonalLoop=1;jettySize=auto;html=1;entryX=1;entryY=0.5;entryDx=0;entryDy=0;" parent="1" source="R6QYUXMwGx2FRjJkUdAH-20" target="R6QYUXMwGx2FRjJkUdAH-3" edge="1">
                    <mxGeometry relative="1" as="geometry">
                        <Array as="points">
                            <mxPoint x="650" y="335"/>
                        </Array>
                    </mxGeometry>
                </mxCell>
                <mxCell id="R6QYUXMwGx2FRjJkUdAH-20" value="&lt;font color=&quot;#000000&quot;&gt;i++&lt;/font&gt;" style="rounded=0;whiteSpace=wrap;html=1;fillColor=#d5e8d4;strokeColor=#82b366;" parent="1" vertex="1">
                    <mxGeometry x="590" y="500" width="120" height="60" as="geometry"/>
                </mxCell>
                <mxCell id="R6QYUXMwGx2FRjJkUdAH-27" value="Да" style="text;html=1;align=center;verticalAlign=middle;resizable=0;points=[];autosize=1;strokeColor=none;fillColor=none;fontColor=#000000;" parent="1" vertex="1">
                    <mxGeometry x="400" y="420" width="40" height="30" as="geometry"/>
                </mxCell>
                <mxCell id="R6QYUXMwGx2FRjJkUdAH-28" value="Да" style="text;html=1;align=center;verticalAlign=middle;resizable=0;points=[];autosize=1;strokeColor=none;fillColor=none;fontColor=#000000;" parent="1" vertex="1">
                    <mxGeometry x="410" y="600" width="40" height="30" as="geometry"/>
                </mxCell>
                <mxCell id="R6QYUXMwGx2FRjJkUdAH-29" value="&lt;font color=&quot;#000000&quot;&gt;Выход&lt;/font&gt;" style="shape=document;whiteSpace=wrap;html=1;boundedLbl=1;fillColor=#f8cecc;strokeColor=#b85450;" parent="1" vertex="1">
                    <mxGeometry x="130" y="420" width="120" height="80" as="geometry"/>
                </mxCell>
                <mxCell id="R6QYUXMwGx2FRjJkUdAH-30" value="Нет" style="text;html=1;align=center;verticalAlign=middle;resizable=0;points=[];autosize=1;fontColor=#000000;" parent="1" vertex="1">
                    <mxGeometry x="510" y="500" width="40" height="30" as="geometry"/>
                </mxCell>
            </root>
        </mxGraphModel>
    </diagram>
</mxfile>